<?xml version="1.0" encoding="utf-8"?>

<!-- Uploaded to: SVG Repo, www.svgrepo.com, Generator: SVG Repo Mixer Tools -->
<svg version="1.1" id="Icons" xmlns="http://www.w3.org/2000/svg" xmlns:xlink="http://www.w3.org/1999/xlink" 
	 viewBox="0 0 32 32" xml:space="preserve">
<style type="text/css">
	.st0{fill:none;stroke:#000000;stroke-width:2;stroke-linecap:round;stroke-linejoin:round;stroke-miterlimit:10;}
	
		.st1{fill:none;stroke:#000000;stroke-width:2;stroke-linecap:round;stroke-linejoin:round;stroke-miterlimit:10;stroke-dasharray:3;}
	.st2{fill:none;stroke:#000000;stroke-width:2;stroke-linejoin:round;stroke-miterlimit:10;}
	.st3{fill:none;}
</style>
<path class="st0" d="M9,4H5C3.9,4,3,4.9,3,6v15c0,1.1,0.9,2,2,2h22c1.1,0,2-0.9,2-2V6c0-1.1-0.9-2-2-2h-4"/>
<line class="st0" x1="9" y1="29" x2="23" y2="29"/>
<path class="st0" d="M13,23c0,2.1-0.7,4.6-1.8,6"/>
<path class="st0" d="M20.8,29c-1.1-1.4-1.8-3.9-1.8-6"/>
<rect x="10" y="7" class="st0" width="12" height="4"/>
<rect x="11" y="11" class="st0" width="10" height="7"/>
<path class="st0" d="M14,7h2V5c0-1.1-0.9-2-2-2h0c-1.1,0-2,0.9-2,2v0C12,6.1,12.9,7,14,7z"/>
<path class="st0" d="M18,7h-2V5c0-1.1,0.9-2,2-2h0c1.1,0,2,0.9,2,2v0C20,6.1,19.1,7,18,7z"/>
<rect x="-144" y="-576" class="st3" width="536" height="680"/>
</svg>